{"title":"Ghostkeeper (1982) 30th Anniversary Edition DVDRip - RadioResear","uid":8471910,"size":813199256,"categoryP":"video","categoryS":"movies","magnet":"?xt=urn:btih:ce7ecaee13260fccb5b10d0bb5f29d750f2b3669&amp;dn=Ghostkeeper+%281982%29+30th+Anniversary+Edition+DVDRip+-+RadioResear&amp;tr=udp%3A%2F%2Ftracker.openbittorrent.com%3A80&amp;tr=udp%3A%2F%2Fopen.demonii.com%3A1337&amp;tr=udp%3A%2F%2Ftracker.coppersurfer.tk%3A6969&amp;tr=udp%3A%2F%2Fexodus.desync.com%3A6969","seeders":0,"leechers":0,"uploader":"RadioResearch","files":3,"time":1368505522,"description":"*******************************************************************************\n      Ghostkeeper (1982) 30th Anniversary Edition DVDRio - RadioResearch\n*******************************************************************************\n\n-------------------------------------------------------------------------------\n                              General Information\n-------------------------------------------------------------------------------\nType.................: Movie\n\n\n\nVideo Format.........: AVI\nVideo Bitrate........: 1247\nResolution...........: 720 x 404\nColor................: 8 bit\nFPS..................: 23.976\nSource...............: DVD 16x9\nOriginal Format......: NTSC\nGenre................: Horror\nIMDb Rating..........: 4.9\nMovie Information....: http://www.imdb.com/title/tt0128232/\n\n-------------------------------------------------------------------------------\n                               Post Information\n-------------------------------------------------------------------------------\nPosted by............: RadioResearch\nPosted on............: 5/13/2013\n\n-------------------------------------------------------------------------------\n                                 Release Notes\n-------------------------------------------------------------------------------\nSEEDBOX SUPPORTED!!\n\nA trio of friends on a snowmobiling trip in the Canadian rockies become lost \nafter venturing up a trail during a snowstorm. They stumble upon a seemingly \nabandoned hotel lodge and decide to spend the night, unaware of the grave danger \nthat they have put themselves in. Who, or what, is the Ghostkeeper, and will \nanyone survive the night? Shot in the rugged location of Lake Louise, Banff \nNational Park in Alberta, Canada, the film's stark, icy photography, low-key \nstyle, and slow-burn sense of dread all add up to a uniquely creepy experience \nin an old snowbound lodge. Poorly distributed on homevideo as a secondary title \nin the 1980's (the U.K. vhs distributor placed a demonic chicken (!) on the box \nart), the film has since garnered a large genre fanbase over the years and has \nbeen voted one of the most anticipated Canadian horror films for a DVD release. \nGHOSTKEEPER is finally unleashed on DVD to chill new and old audiences alike. \n\nThis is the Code Red release with the brand new 16 x 9 (1.78:1) master from the \nonly surviving 35mm print.  This is a clear and properly lighted version of the \nfilm, not like those 2nd or 3rd generation knock-offs that are floating around.  \nThis is a much-sought-after collector's item, and not only that, it's a damn \nfine film too!  This DVD is long out-of-print!\n\nEnjoy!\n\nRadioResearch\n\nGeneral\nComplete name                            : G:Ghostkeeper (1982) 30th \nAnniversary Edition DVDRip - RadioResearchGhostkeeper - {RadioResearch}.avi\nFormat                                   : AVI\nFormat/Info                              : Audio Video Interleave\nFile size                                : 776 MiB\nDuration                                 : 1h 26mn\nOverall bit rate                         : 1 247 Kbps\nMovie name                               : GHOST_KEEPER.Title8.DVDRip\nWriting application                      : Lavf53.32.100\nOriginal source form/Name                : GHOST_KEEPER\n\nVideo\nID                                       : 0\nFormat                                   : MPEG-4 Visual\nFormat profile                           : Advanced Simple@L5\nFormat settings, BVOP                    : 2\nFormat settings, QPel                    : No\nFormat settings, GMC                     : No warppoints\nFormat settings, Matrix                  : Default (H.263)\nMuxing mode                              : Packed bitstream\nCodec ID                                 : XVID\nCodec ID/Hint                            : XviD\nDuration                                 : 1h 26mn\nBit rate                                 : 1 044 Kbps\nWidth                                    : 720 pixels\nHeight                                   : 404 pixels\nDisplay aspect ratio                     : 16:9\nFrame rate                               : 23.976 fps\nColor space                              : YUV\nChroma subsampling                       : 4:2:0\nBit depth                                : 8 bits\nScan type                                : Progressive\nCompression mode                         : Lossy\nBits/(Pixel*Frame)                       : 0.150\nStream size                              : 649 MiB (84%)\nWriting library                          : XviD 64\n\nAudio\nID                                       : 1\nFormat                                   : AC-3\nFormat/Info                              : Audio Coding 3\nMode extension                           : CM (complete main)\nFormat settings, Endianness              : Big\nCodec ID                                 : 2000\nDuration                                 : 1h 26mn\nBit rate mode                            : Constant\nBit rate                                 : 192 Kbps\nChannel(s)                               : 2 channels\nChannel positions                        : Front: L R\nSampling rate                            : 48.0 KHz\nBit depth                                : 16 bits\nCompression mode                         : Lossy\nStream size                              : 119 MiB (15%)\nAlignment                                : Aligned on interleaves\nInterleave, duration                     : 32 ms (0.77 video frame)\n\nAVI FILE MD5 HASH  4e47e5129cc7d88534a4c44e784b8682\n\n\n\n-------------------------------------------------------------------------------\nGenerated with Cool NFO Creator - http://fly.to/coolbeans\n-------------------------------------------------------------------------------\n","torrent":{"xt":"urn:btih:ce7ecaee13260fccb5b10d0bb5f29d750f2b3669","amp;dn":"Ghostkeeper+%281982%29+30th+Anniversary+Edition+DVDRip+-+RadioResear","amp;tr":["udp%3A%2F%2Ftracker.openbittorrent.com%3A80","udp%3A%2F%2Fopen.demonii.com%3A1337","udp%3A%2F%2Ftracker.coppersurfer.tk%3A6969","udp%3A%2F%2Fexodus.desync.com%3A6969"],"infoHash":"ce7ecaee13260fccb5b10d0bb5f29d750f2b3669","infoHashBuffer":{"type":"Buffer","data":[206,126,202,238,19,38,15,204,181,177,13,11,181,242,157,117,15,43,54,105]},"announce":[],"urlList":[]}}